<mxfile host="app.diagrams.net" agent="Mozilla/5.0 (X11; Linux x86_64; rv:128.0) Gecko/20100101 Firefox/128.0" version="27.1.4">
  <diagram name="Page-1" id="wySYt1mvwEMyCpzejhKa">
    <mxGraphModel dx="1178" dy="655" grid="1" gridSize="10" guides="1" tooltips="1" connect="1" arrows="1" fold="1" page="1" pageScale="1" pageWidth="850" pageHeight="1100" math="0" shadow="0">
      <root>
        <mxCell id="0" />
        <mxCell id="1" parent="0" />
        <mxCell id="VeZZClJ98tr1cIM5PoLm-1" value="GIGIONE" style="rounded=1;whiteSpace=wrap;html=1;fillColor=#f8cecc;gradientColor=#ea6b66;strokeColor=#b85450;fontSize=20;" vertex="1" parent="1">
          <mxGeometry x="200" y="310" width="220" height="50" as="geometry" />
        </mxCell>
        <mxCell id="VeZZClJ98tr1cIM5PoLm-3" value="BIGIONE" style="rounded=1;whiteSpace=wrap;html=1;fillColor=#dae8fc;gradientColor=#7ea6e0;strokeColor=#6c8ebf;fontSize=20;" vertex="1" parent="1">
          <mxGeometry x="200" y="380" width="220" height="50" as="geometry" />
        </mxCell>
        <mxCell id="VeZZClJ98tr1cIM5PoLm-5" value="&lt;div&gt;...&lt;/div&gt;&lt;div&gt;&lt;br&gt;&lt;/div&gt;" style="rounded=1;whiteSpace=wrap;html=1;fillColor=#f5f5f5;gradientColor=#b3b3b3;strokeColor=#666666;gradientDirection=south;" vertex="1" parent="1">
          <mxGeometry x="200" y="450" width="220" height="50" as="geometry" />
        </mxCell>
        <mxCell id="VeZZClJ98tr1cIM5PoLm-6" value="&lt;font style=&quot;font-size: 100px;&quot;&gt;ðŸ›¸&lt;/font&gt;" style="whiteSpace=wrap;html=1;aspect=fixed;rounded=1;perimeterSpacing=1;fillColor=#f8cecc;gradientColor=light-dark(#EA6B66,#FF0000);strokeColor=#b85450;" vertex="1" parent="1">
          <mxGeometry x="450" y="310" width="260" height="260" as="geometry" />
        </mxCell>
        <mxCell id="VeZZClJ98tr1cIM5PoLm-7" value="WAITING ROOM" style="rounded=1;whiteSpace=wrap;html=1;fontSize=40;opacity=0;" vertex="1" parent="1">
          <mxGeometry x="260" y="240" width="400" height="60" as="geometry" />
        </mxCell>
        <mxCell id="VeZZClJ98tr1cIM5PoLm-8" value="&lt;font style=&quot;font-size: 45px;&quot;&gt;LEVEL 2&lt;/font&gt;" style="rounded=1;whiteSpace=wrap;html=1;labelBackgroundColor=none;fontColor=light-dark(#000000,#FFFFFF);fontStyle=1;fontSize=20;opacity=0;" vertex="1" parent="1">
          <mxGeometry x="450" y="480" width="260" height="70" as="geometry" />
        </mxCell>
        <mxCell id="VeZZClJ98tr1cIM5PoLm-9" value="" style="rounded=1;whiteSpace=wrap;html=1;gradientDirection=south;" vertex="1" parent="1">
          <mxGeometry x="200" y="520" width="220" height="50" as="geometry" />
        </mxCell>
        <mxCell id="VeZZClJ98tr1cIM5PoLm-10" value="" style="endArrow=none;html=1;rounded=0;entryX=1;entryY=0;entryDx=0;entryDy=0;" edge="1" parent="1" target="VeZZClJ98tr1cIM5PoLm-9">
          <mxGeometry width="50" height="50" relative="1" as="geometry">
            <mxPoint x="420" y="520" as="sourcePoint" />
            <mxPoint x="460" y="390" as="targetPoint" />
            <Array as="points">
              <mxPoint x="200" y="570" />
            </Array>
          </mxGeometry>
        </mxCell>
        <mxCell id="VeZZClJ98tr1cIM5PoLm-11" value="" style="endArrow=none;html=1;rounded=0;exitX=0;exitY=0;exitDx=0;exitDy=0;entryX=1;entryY=1;entryDx=0;entryDy=0;" edge="1" parent="1" source="VeZZClJ98tr1cIM5PoLm-9" target="VeZZClJ98tr1cIM5PoLm-9">
          <mxGeometry width="50" height="50" relative="1" as="geometry">
            <mxPoint x="410" y="440" as="sourcePoint" />
            <mxPoint x="460" y="390" as="targetPoint" />
          </mxGeometry>
        </mxCell>
      </root>
    </mxGraphModel>
  </diagram>
</mxfile>
